<svg width="186" height="40" viewBox="0 0 186 40" fill="none" xmlns="http://www.w3.org/2000/svg">
<path d="M46.0496 11.0527H58.7104L57.9259 15.569H50.887L50.4565 18.084H55.5208L54.7611 22.3702H49.6968L48.5065 29.2227H42.8848L46.0496 11.0527Z" fill="white"/>
<path d="M68.1802 26.4765H62.2044L60.8366 29.2227H54.936L64.6601 11.0527H71.1428L74.5112 29.2227H68.586L68.1802 26.4765ZM66.8383 17.1352L64.3308 22.1902H67.5721L66.8383 17.1352Z" fill="white"/>
<path d="M82.6383 29.2309C78.2438 29.2309 75.206 27.3546 75.65 23.3746H81.4777C81.379 24.4009 81.7737 24.9009 82.737 24.9009C83.3044 24.9009 83.7743 24.6009 83.7743 24.0246C83.7743 21.7721 76.7859 22.1484 76.7859 17.0434C76.7859 13.1896 79.8472 11.0371 84.0703 11.0371C88.1195 11.0371 91.0586 13.1646 90.6134 16.7671H84.7116C84.8843 15.8409 84.465 15.3659 83.7484 15.3659C83.2057 15.3659 82.7851 15.7159 82.7851 16.2671C82.7851 18.3946 89.7488 18.4446 89.7488 23.5246C89.75 26.7534 87.1328 29.2309 82.6383 29.2309Z" fill="white"/>
<path d="M93.1924 11.0527H108.284L107.5 15.569H102.739L100.358 29.2215H94.7366L97.1171 15.569H92.4067L93.1924 11.0527Z" fill="white"/>
<path d="M113.03 11.0566H125.117L124.783 12.9029H119.907L117.085 29.1854H114.749L117.572 12.9029H112.697L113.03 11.0566Z" fill="white"/>
<path d="M133.126 11.0117C137.334 11.0117 138.926 13.3792 138.412 16.3442C138.001 18.6592 136.358 20.8705 133.254 21.5467L136.41 29.1417H133.613L130.635 21.7292H127.838L126.529 29.1417H124.193L127.376 11.013H133.126V11.0117ZM132.791 12.8842H129.379L128.172 19.8292H131.611C134.228 19.8292 135.641 18.373 136 16.3442C136.384 14.2367 135.461 12.8842 132.791 12.8842Z" fill="white"/>
<path d="M150.209 25.1173H142.309L140.159 29.1861H137.673L147.359 10.9961H150.078L153.42 29.1861H150.933L150.209 25.1173ZM148.215 13.9098L143.293 23.2536H149.872L148.215 13.9098Z" fill="white"/>
<path d="M171.653 20.1298C170.675 25.7673 166.452 29.1861 160.555 29.1861H154.967L158.16 10.9961H163.749C169.619 10.9961 172.659 14.4936 171.653 20.1298ZM160.89 27.3598C165.576 27.3598 168.486 24.5673 169.258 20.1311C170.03 15.6948 168.074 12.9286 163.413 12.9286H160.168L157.644 27.3611H160.89V27.3598Z" fill="white"/>
<path d="M184.674 12.9038H177.411L176.333 19.12H182.825L182.517 20.9412H176.024L174.895 27.3137H182.183L181.85 29.1862H172.226L175.408 11.0312H185.008L184.674 12.9038Z" fill="white"/>
<path d="M31.5376 4.3025C32.3603 4.3025 33.1497 4.4775 33.8835 4.82375C34.5902 5.1575 35.2106 5.63 35.7287 6.23C36.2467 6.83 36.6266 7.51625 36.8597 8.27C37.0965 9.03875 37.1656 9.83875 37.0644 10.65L32.7007 35.775H7.96632C7.14365 35.775 6.35428 35.6 5.62041 35.2537C4.91368 34.92 4.29329 34.4475 3.77526 33.8475C3.25724 33.2475 2.87736 32.5613 2.64425 31.8075C2.40743 31.0388 2.33836 30.2388 2.4395 29.4275L6.80323 4.3025H31.5376ZM31.5376 1.875H4.79281L0.0713961 29.0613C-0.566266 33.9013 3.1487 38.2025 7.96632 38.2025H34.7111L39.4325 11.0162C40.0702 6.17625 36.3552 1.875 31.5376 1.875Z" fill="white"/>
<path d="M10.7404 11.6602L7.82471 28.4027H13.0037L14.1014 22.0889H18.7673L19.4679 18.1389H14.8008L15.1979 15.8214H21.6843L22.4071 11.6602H10.7404Z" fill="white"/>
<path d="M30.4967 18.1152H21.1427L20.457 21.9852L20.4409 22.0752H23.1322L21.9864 28.4027H26.0405L27.1851 22.0752H29.8171L30.4967 18.1152Z" fill="white"/>
</svg>
